<svg width="40" height="40" viewBox="0 0 40 40" fill="none" xmlns="http://www.w3.org/2000/svg">
<circle cx="20" cy="20" r="20" fill="#FDFDFD"/>
<g clip-path="url(#clip0_17_25)">
<path d="M19.984 24.815C22.58 24.815 24.69 22.704 24.69 20.108C24.69 18.699 24.067 17.434 23.084 16.57C22.738 16.267 22.349 16.014 21.926 15.822C21.333 15.552 20.677 15.401 19.985 15.401C19.293 15.401 18.636 15.552 18.044 15.822C17.62 16.016 17.23 16.269 16.886 16.571C15.901 17.435 15.278 18.7 15.278 20.109C15.278 22.704 17.39 24.815 19.984 24.815ZM20 16.631C21.921 16.631 23.479 18.188 23.479 20.109C23.479 22.03 21.921 23.588 20 23.588C18.079 23.588 16.521 22.031 16.521 20.109C16.521 18.188 18.079 16.631 20 16.631ZM25.223 17H32V27.278C32 29.886 29.886 32 27.278 32H12.785C10.177 32 8 29.886 8 27.278V17H14.747C14.203 17.913 13.875 18.969 13.875 20.109C13.875 23.483 16.61 26.218 19.984 26.218C23.358 26.218 26.093 23.483 26.093 20.109C26.094 18.969 25.766 17.913 25.223 17ZM27.278 8H15V13H14V8H13V13H12V8.077C11.654 8.134 11.318 8.22 11 8.347V13H10V8.898C8.798 9.755 8 11.144 8 12.722V16H15.473C16.64 14.718 18.271 14 19.984 14C21.706 14 23.335 14.725 24.495 16H32V12.722C32 10.114 29.886 8 27.278 8V8ZM30 13.265C30 13.671 29.667 14 29.255 14H26.744C26.333 14 26 13.671 26 13.265V10.735C26 10.329 26.333 10 26.744 10H29.255C29.667 10 30 10.329 30 10.735V13.265Z" fill="#14131C"/>
</g>
<defs>
<clipPath id="clip0_17_25">
<rect width="24" height="24" fill="white" transform="translate(8 8)"/>
</clipPath>
</defs>
</svg>
