<svg width="40" height="40" viewBox="0 0 40 40" fill="none" xmlns="http://www.w3.org/2000/svg">
<circle cx="20" cy="20" r="20" fill="#FDFDFD"/>
<g clip-path="url(#clip0_17_36)">
<path fill-rule="evenodd" clip-rule="evenodd" d="M25.3839 30.7789C25.7059 31.0069 26.1209 31.0639 26.4909 30.9239C26.8609 30.7829 27.1329 30.4669 27.2149 30.0839C28.0839 25.9999 30.1919 15.6629 30.9829 11.9479C31.0429 11.6679 30.9429 11.3769 30.7229 11.1899C30.5029 11.0029 30.1979 10.9489 29.9259 11.0499C25.7329 12.6019 12.8199 17.4469 7.54191 19.3999C7.20691 19.5239 6.98891 19.8459 6.99991 20.1989C7.01191 20.5529 7.24991 20.8599 7.59291 20.9629C9.95991 21.6709 13.0669 22.6559 13.0669 22.6559C13.0669 22.6559 14.5189 27.0409 15.2759 29.2709C15.3709 29.5509 15.5899 29.7709 15.8789 29.8469C16.1669 29.9219 16.4749 29.8429 16.6899 29.6399C17.9059 28.4919 19.7859 26.7169 19.7859 26.7169C19.7859 26.7169 23.3579 29.3359 25.3839 30.7789ZM14.3739 22.1019L16.0529 27.6399L16.4259 24.1329C16.4259 24.1329 22.9129 18.2819 26.6109 14.9469C26.7189 14.8489 26.7339 14.6849 26.6439 14.5699C26.5549 14.4549 26.3909 14.4279 26.2679 14.5059C21.9819 17.2429 14.3739 22.1019 14.3739 22.1019Z" fill="#14131C"/>
</g>
<defs>
<clipPath id="clip0_17_36">
<rect width="24" height="24" fill="white" transform="translate(7 8)"/>
</clipPath>
</defs>
</svg>
