<svg width="40" height="40" viewBox="0 0 40 40" fill="none" xmlns="http://www.w3.org/2000/svg">
<circle cx="20" cy="20" r="20" fill="#FDFDFD"/>
<g clip-path="url(#clip0_17_53)">
<path d="M33 13.557C32.117 13.949 31.168 14.213 30.172 14.332C31.189 13.723 31.97 12.758 32.337 11.608C31.386 12.172 30.332 12.582 29.21 12.803C28.313 11.846 27.032 11.248 25.616 11.248C22.437 11.248 20.101 14.214 20.819 17.293C16.728 17.088 13.1 15.128 10.671 12.149C9.381 14.362 10.002 17.257 12.194 18.723C11.388 18.697 10.628 18.476 9.965 18.107C9.911 20.388 11.546 22.522 13.914 22.997C13.221 23.185 12.462 23.229 11.69 23.081C12.316 25.037 14.134 26.46 16.29 26.5C14.22 28.123 11.612 28.848 9 28.54C11.179 29.937 13.768 30.752 16.548 30.752C25.69 30.752 30.855 23.031 30.543 16.106C31.505 15.411 32.34 14.544 33 13.557Z" fill="#14131C"/>
</g>
<defs>
<clipPath id="clip0_17_53">
<rect width="24" height="24" fill="white" transform="translate(9 9)"/>
</clipPath>
</defs>
</svg>
