<svg width="204" height="39" viewBox="0 0 204 39" fill="none" xmlns="http://www.w3.org/2000/svg">
<g clip-path="url(#clip0_128_4)">
<path d="M32.1422 0.250234L38.1692 15.3477L39.5419 15.7752V16.0002H34.3728V15.7752L35.7884 15.3477L33.9867 10.7802H27.5093L25.6218 15.3477L27.5093 15.7752V16.0002H23.6914V15.7752L25.1499 15.3477L31.4344 0.250234H32.1422ZM30.8338 2.72523L27.7023 10.3077H33.7937L30.8338 2.72523Z" fill="#FAFAFA"/>
<path d="M58.9504 0.902735L59.937 15.3477L61.2668 15.7752V16.0002H56.2479V15.7752L57.642 15.3477L56.7412 2.32023L51.2289 16.0002H50.5211L44.923 2.29773L44.0007 15.3927L45.3091 15.8202V16.0002H42.1561V15.8202L43.5503 15.3927L44.5584 0.902735L43.1642 0.475234V0.250234H46.4459L51.808 13.5252L57.1273 0.250234H60.2802V0.475234L58.9504 0.902735Z" fill="#FAFAFA"/>
<path d="M64.9114 15.5277V12.3327H65.2975C65.4548 13.0227 65.705 13.6152 66.0482 14.1102C66.3914 14.5902 66.7846 14.9502 67.2279 15.1902C67.6711 15.4152 68.0858 15.5727 68.4719 15.6627C68.8723 15.7527 69.2869 15.7977 69.7159 15.7977C70.9027 15.7977 71.8322 15.4977 72.5042 14.8977C73.1763 14.2977 73.5123 13.4577 73.5123 12.3777C73.5123 11.8677 73.4337 11.4402 73.2764 11.0952C73.1334 10.7502 72.8688 10.4577 72.4828 10.2177C72.111 9.96273 71.7464 9.76773 71.3889 9.63273C71.0314 9.49773 70.4881 9.31773 69.7588 9.09273C69.387 8.97273 69.1153 8.89023 68.9438 8.84523C68.7865 8.78523 68.5362 8.69523 68.1931 8.57523C67.8499 8.45523 67.5925 8.35773 67.4209 8.28273C67.2636 8.19274 67.042 8.07273 66.756 7.92273C66.4843 7.77273 66.277 7.63023 66.134 7.49523C66.0053 7.34523 65.848 7.16523 65.6621 6.95524C65.4905 6.74524 65.3618 6.52773 65.276 6.30273C65.1903 6.07773 65.1116 5.81523 65.0401 5.51523C64.9829 5.21523 64.9543 4.90023 64.9543 4.57023C64.9543 3.25023 65.369 2.17773 66.1983 1.35273C67.0277 0.527734 68.2574 0.115234 69.8875 0.115234C71.2602 0.115234 72.4613 0.467734 73.4909 1.17273L74.3917 0.520235L74.6062 0.745234V3.94023H74.2201C74.0771 3.25023 73.8483 2.66523 73.5338 2.18523C73.2192 1.69023 72.8546 1.33023 72.4399 1.10523C72.0395 0.865234 71.6606 0.700234 71.3031 0.610235C70.9456 0.505234 70.581 0.452734 70.2092 0.452734C69.1654 0.452734 68.3289 0.745234 67.6997 1.33023C67.0849 1.91523 66.7774 2.68023 66.7774 3.62523C66.7774 4.00023 66.8346 4.33773 66.949 4.63774C67.0777 4.93774 67.2207 5.17773 67.378 5.35773C67.5353 5.53773 67.7998 5.71773 68.1716 5.89773C68.5434 6.07773 68.8508 6.21273 69.0939 6.30273C69.3513 6.39273 69.7517 6.52773 70.295 6.70773C70.9385 6.91773 71.4461 7.09773 71.8179 7.24773C72.1896 7.38273 72.6258 7.59273 73.1262 7.87773C73.641 8.14773 74.0342 8.44023 74.3059 8.75523C74.5919 9.05523 74.835 9.45273 75.0352 9.94773C75.2353 10.4277 75.3354 10.9677 75.3354 11.5677C75.3354 12.9327 74.885 14.0352 73.9842 14.8752C73.0833 15.7152 71.7321 16.1352 69.9304 16.1352C68.4433 16.1352 67.1492 15.7827 66.0482 15.0777L65.1259 15.7527L64.9114 15.5277Z" fill="#FAFAFA"/>
<path d="M90.5686 0.700235H86.5577V15.3477L87.9519 15.7752V16.0002H82.8471V15.7752L84.2413 15.3477V0.700235H80.2519L79.2438 3.01773H78.9006V0.250234H91.9199V3.01773H91.5553L90.5686 0.700235Z" fill="#FAFAFA"/>
<path d="M98.8666 15.5502H105.559L106.567 13.2552H106.91V16.0002H95.156V15.8202L96.5501 15.4602V0.790234L95.156 0.452734V0.250234H106.695V3.01773H106.352L105.344 0.700235H98.8666V7.63023H104.1L104.55 5.87523H104.872V9.85773H104.55L104.1 8.10273H98.8666V15.5502Z" fill="#FAFAFA"/>
<path d="M122.334 4.52523C122.334 5.63523 121.984 6.55773 121.283 7.29273C120.583 8.01273 119.639 8.45523 118.452 8.62023C118.967 8.81523 119.46 9.35523 119.932 10.2402L122.763 15.4152L124.007 15.7752V16.0002H120.683L116.779 8.73273H114.291V15.3477L115.685 15.7752V16.0002H110.581V15.7752L111.975 15.3477V0.790234L110.581 0.452734V0.250234H117.015C118.617 0.250234 119.904 0.632734 120.876 1.39773C121.848 2.14773 122.334 3.19023 122.334 4.52523ZM116.736 0.700235H114.291V8.28273H116.736C117.709 8.28273 118.488 7.96023 119.074 7.31523C119.675 6.67023 119.975 5.73273 119.975 4.50273C119.975 3.27273 119.675 2.33523 119.074 1.69023C118.488 1.03023 117.709 0.700235 116.736 0.700235Z" fill="#FAFAFA"/>
<path d="M126.864 0.250234H133.706C135.879 0.250234 137.638 0.962734 138.982 2.38773C140.326 3.79773 140.998 5.71023 140.998 8.12523C140.998 10.5552 140.326 12.4752 138.982 13.8852C137.638 15.2952 135.879 16.0002 133.706 16.0002H126.864V15.8202L128.258 15.4602V0.790234L126.864 0.452734V0.250234ZM133.706 0.700235H130.574V15.5502H133.706C135.179 15.5502 136.358 14.9202 137.245 13.6602C138.132 12.3852 138.575 10.5477 138.575 8.14773C138.575 5.73273 138.132 3.88773 137.245 2.61273C136.358 1.33773 135.179 0.700235 133.706 0.700235Z" fill="#FAFAFA"/>
<path d="M151.509 0.250234L157.536 15.3477L158.908 15.7752V16.0002H153.739V15.7752L155.155 15.3477L153.353 10.7802H146.876L144.988 15.3477L146.876 15.7752V16.0002H143.058V15.7752L144.516 15.3477L150.801 0.250234H151.509ZM150.2 2.72523L147.069 10.3077H153.16L150.2 2.72523Z" fill="#FAFAFA"/>
<path d="M178.317 0.902735L179.303 15.3477L180.633 15.7752V16.0002H175.614V15.7752L177.008 15.3477L176.108 2.32023L170.595 16.0002H169.888L164.289 2.29773L163.367 15.3927L164.676 15.8202V16.0002H161.523V15.8202L162.917 15.3927L163.925 0.902735L162.531 0.475234V0.250234H165.812L171.174 13.5252L176.494 0.250234H179.647V0.475234L178.317 0.902735Z" fill="#FAFAFA"/>
<path d="M23.9774 39.0002V26.0402H28.7475C28.8676 26.0402 29.0021 26.0462 29.1508 26.0582C29.3052 26.0642 29.4596 26.0822 29.6141 26.1122C30.2604 26.2142 30.8066 26.4512 31.2527 26.8232C31.7046 27.1892 32.0449 27.6512 32.2737 28.2092C32.5082 28.7672 32.6254 29.3852 32.6254 30.0632C32.6254 31.0412 32.3795 31.8902 31.8876 32.6102C31.3957 33.3302 30.6922 33.7832 29.7771 33.9692L29.3395 34.0772H25.2385V39.0002H23.9774ZM31.4586 39.0002L29.0221 33.7262L30.2318 33.2402L32.9086 39.0002H31.4586ZM25.2385 32.8172H28.7132C28.8162 32.8172 28.9363 32.8112 29.0735 32.7992C29.2108 32.7872 29.3452 32.7662 29.4768 32.7362C29.9 32.6402 30.2461 32.4572 30.5149 32.1872C30.7894 31.9172 30.9925 31.5962 31.124 31.2242C31.2613 30.8522 31.3299 30.4652 31.3299 30.0632C31.3299 29.6612 31.2613 29.2742 31.124 28.9022C30.9925 28.5242 30.7894 28.2002 30.5149 27.9302C30.2461 27.6602 29.9 27.4772 29.4768 27.3812C29.3452 27.3512 29.2108 27.3332 29.0735 27.3272C28.9363 27.3152 28.8162 27.3092 28.7132 27.3092H25.2385V32.8172Z" fill="#FAFAFA"/>
<path d="M40.4389 39.2702C39.5352 39.2702 38.7516 39.0602 38.0881 38.6402C37.4304 38.2202 36.9185 37.6292 36.5524 36.8672C36.1863 36.1052 36.0033 35.2112 36.0033 34.1852C36.0033 33.1232 36.1835 32.2052 36.5438 31.4312C36.9042 30.6572 37.4103 30.0602 38.0624 29.6402C38.7201 29.2202 39.4952 29.0102 40.3874 29.0102C41.3026 29.0102 42.0833 29.2322 42.7296 29.6762C43.3759 30.1142 43.8649 30.7442 44.1967 31.5662C44.5284 32.3882 44.68 33.3692 44.6514 34.5092H43.3645V34.0412C43.3416 32.7812 43.0814 31.8302 42.5837 31.1882C42.0919 30.5462 41.3712 30.2252 40.4217 30.2252C39.4265 30.2252 38.6629 30.5642 38.131 31.2422C37.6048 31.9202 37.3417 32.8862 37.3417 34.1402C37.3417 35.3642 37.6048 36.3152 38.131 36.9932C38.6629 37.6652 39.4151 38.0012 40.3874 38.0012C41.0509 38.0012 41.6286 37.8422 42.1205 37.5242C42.6181 37.2002 43.0099 36.7352 43.2958 36.1292L44.4712 36.6062C44.1052 37.4522 43.5647 38.1092 42.8497 38.5772C42.1405 39.0392 41.3369 39.2702 40.4389 39.2702ZM36.8956 34.5092V33.4022H43.9736V34.5092H36.8956Z" fill="#FAFAFA"/>
<path d="M51.7288 39.2612C50.642 39.2612 49.7469 39.0152 49.0434 38.5232C48.3456 38.0312 47.9166 37.3472 47.7565 36.4712L49.0434 36.2462C49.1807 36.7982 49.4924 37.2392 49.9786 37.5692C50.4704 37.8932 51.0767 38.0552 51.7974 38.0552C52.5009 38.0552 53.0557 37.9022 53.4618 37.5962C53.8679 37.2842 54.0709 36.8612 54.0709 36.3272C54.0709 36.0272 54.0052 35.7842 53.8736 35.5982C53.7478 35.4062 53.4875 35.2292 53.0929 35.0672C52.6982 34.9052 52.1091 34.7132 51.3255 34.4912C50.4847 34.2512 49.827 34.0112 49.3523 33.7712C48.8775 33.5312 48.5401 33.2552 48.3399 32.9432C48.1397 32.6252 48.0396 32.2382 48.0396 31.7822C48.0396 31.2302 48.1883 30.7472 48.4857 30.3332C48.7832 29.9132 49.195 29.5892 49.7212 29.3612C50.2474 29.1272 50.8594 29.0102 51.5572 29.0102C52.255 29.0102 52.8784 29.1302 53.4275 29.3702C53.9823 29.6042 54.4284 29.9342 54.7659 30.3602C55.1033 30.7862 55.3035 31.2812 55.3664 31.8452L54.0795 32.0882C53.9937 31.5182 53.7221 31.0682 53.2645 30.7382C52.8126 30.4022 52.2378 30.2282 51.54 30.2162C50.8823 30.1982 50.3475 30.3302 49.9357 30.6122C49.5238 30.8882 49.3179 31.2572 49.3179 31.7192C49.3179 31.9772 49.3923 32.1992 49.541 32.3852C49.6897 32.5652 49.9585 32.7362 50.3475 32.8982C50.7421 33.0602 51.3026 33.2372 52.029 33.4292C52.8813 33.6572 53.5505 33.8972 54.0366 34.1492C54.5228 34.4012 54.8688 34.6982 55.0747 35.0402C55.2806 35.3822 55.3836 35.8052 55.3836 36.3092C55.3836 37.2272 55.0576 37.9502 54.4055 38.4782C53.7592 39.0002 52.867 39.2612 51.7288 39.2612Z" fill="#FAFAFA"/>
<path d="M64.047 39.0002C63.5265 39.1142 63.0117 39.1592 62.5027 39.1352C61.9993 39.1112 61.5475 38.9972 61.1471 38.7932C60.7525 38.5892 60.4522 38.2712 60.2463 37.8392C60.0804 37.4792 59.9889 37.1162 59.9717 36.7502C59.9603 36.3782 59.9546 35.9552 59.9546 35.4812V26.5802H61.2072V35.4272C61.2072 35.8352 61.21 36.1772 61.2157 36.4532C61.2272 36.7232 61.2872 36.9632 61.3959 37.1732C61.6018 37.5752 61.9278 37.8152 62.374 37.8932C62.8258 37.9712 63.3835 37.9532 64.047 37.8392V39.0002ZM57.9727 30.4142V29.2802H64.047V30.4142H57.9727Z" fill="#FAFAFA"/>
<path d="M70.2394 39.2702C69.5416 39.2702 68.9554 39.1382 68.4807 38.8742C68.0116 38.6102 67.6599 38.2592 67.4254 37.8212C67.1909 37.3832 67.0736 36.9062 67.0736 36.3902C67.0736 35.8622 67.1737 35.4122 67.3739 35.0402C67.5798 34.6622 67.8572 34.3532 68.2061 34.1132C68.5607 33.8732 68.9697 33.6902 69.433 33.5642C69.902 33.4442 70.4196 33.3392 70.9858 33.2492C71.5578 33.1532 72.1155 33.0722 72.6588 33.0062C73.2079 32.9342 73.6884 32.8652 74.1002 32.7992L73.6541 33.0872C73.6712 32.1272 73.4939 31.4162 73.1221 30.9542C72.7504 30.4922 72.104 30.2612 71.1832 30.2612C70.5483 30.2612 70.0107 30.4112 69.5702 30.7112C69.1355 31.0112 68.8295 31.4852 68.6522 32.1332L67.4254 31.7552C67.637 30.8852 68.0631 30.2102 68.7037 29.7302C69.3443 29.2502 70.1765 29.0102 71.2003 29.0102C72.0468 29.0102 72.7647 29.1782 73.3538 29.5142C73.9486 29.8442 74.369 30.3242 74.615 30.9542C74.7293 31.2362 74.8037 31.5512 74.838 31.8992C74.8723 32.2472 74.8895 32.6012 74.8895 32.9612V39.0002H73.7656V36.5612L74.0916 36.7052C73.777 37.5392 73.288 38.1752 72.6245 38.6132C71.961 39.0512 71.166 39.2702 70.2394 39.2702ZM70.3853 38.1272C70.9744 38.1272 71.4892 38.0162 71.9296 37.7942C72.37 37.5722 72.7246 37.2692 72.9934 36.8852C73.2623 36.4952 73.4367 36.0572 73.5168 35.5712C73.5854 35.2592 73.6226 34.9172 73.6283 34.5452C73.634 34.1672 73.6369 33.8852 73.6369 33.6992L74.1173 33.9602C73.6884 34.0202 73.2222 34.0802 72.7189 34.1402C72.2213 34.2002 71.7294 34.2692 71.2432 34.3472C70.7628 34.4252 70.3281 34.5182 69.9392 34.6262C69.6761 34.7042 69.4215 34.8152 69.1756 34.9592C68.9296 35.0972 68.7266 35.2832 68.5664 35.5172C68.412 35.7512 68.3348 36.0422 68.3348 36.3902C68.3348 36.6722 68.4006 36.9452 68.5321 37.2092C68.6694 37.4732 68.8867 37.6922 69.1842 37.8662C69.4873 38.0402 69.8877 38.1272 70.3853 38.1272Z" fill="#FAFAFA"/>
<path d="M82.3822 39.2432C81.8274 39.2432 81.3412 39.1532 80.9237 38.9732C80.5118 38.7932 80.1601 38.5502 79.8684 38.2442C79.5824 37.9382 79.3508 37.5902 79.1734 37.2002C78.9961 36.8042 78.8674 36.3872 78.7874 35.9492C78.7073 35.5052 78.6673 35.0642 78.6673 34.6262V29.2802H79.937V34.2392C79.937 34.7732 79.9856 35.2682 80.0829 35.7242C80.1801 36.1802 80.3345 36.5792 80.5462 36.9212C80.7635 37.2572 81.0409 37.5182 81.3784 37.7042C81.7215 37.8902 82.1362 37.9832 82.6224 37.9832C83.0685 37.9832 83.4603 37.9022 83.7978 37.7402C84.1409 37.5782 84.4269 37.3472 84.6557 37.0472C84.8902 36.7412 85.0675 36.3722 85.1876 35.9402C85.3077 35.5022 85.3678 35.0102 85.3678 34.4642L86.2601 34.6712C86.2601 35.6672 86.0942 36.5042 85.7625 37.1822C85.4307 37.8602 84.9731 38.3732 84.3897 38.7212C83.8063 39.0692 83.1371 39.2432 82.3822 39.2432ZM85.4965 39.0002V36.6062H85.3678V29.2802H86.629V39.0002H85.4965Z" fill="#FAFAFA"/>
<path d="M90.7428 39.0002V29.2802H91.8753V31.6202L91.6522 31.3142C91.7552 31.0262 91.8896 30.7622 92.0555 30.5222C92.2213 30.2762 92.4015 30.0752 92.596 29.9192C92.8362 29.6972 93.1165 29.5292 93.4368 29.4152C93.7571 29.2952 94.0802 29.2262 94.4062 29.2082C94.7323 29.1842 95.0297 29.2082 95.2985 29.2802V30.5222C94.961 30.4322 94.5921 30.4112 94.1918 30.4592C93.7914 30.5072 93.4225 30.6752 93.085 30.9632C92.7762 31.2152 92.5445 31.5182 92.3901 31.8722C92.2356 32.2202 92.1327 32.5922 92.0812 32.9882C92.0297 33.3782 92.004 33.7652 92.004 34.1492V39.0002H90.7428Z" fill="#FAFAFA"/>
<path d="M100.941 39.2702C100.243 39.2702 99.657 39.1382 99.1823 38.8742C98.7133 38.6102 98.3615 38.2592 98.127 37.8212C97.8925 37.3832 97.7753 36.9062 97.7753 36.3902C97.7753 35.8622 97.8754 35.4122 98.0756 35.0402C98.2815 34.6622 98.5589 34.3532 98.9078 34.1132C99.2624 33.8732 99.6713 33.6902 100.135 33.5642C100.604 33.4442 101.121 33.3392 101.687 33.2492C102.259 33.1532 102.817 33.0722 103.36 33.0062C103.91 32.9342 104.39 32.8652 104.802 32.7992L104.356 33.0872C104.373 32.1272 104.196 31.4162 103.824 30.9542C103.452 30.4922 102.806 30.2612 101.885 30.2612C101.25 30.2612 100.712 30.4112 100.272 30.7112C99.8372 31.0112 99.5312 31.4852 99.3539 32.1332L98.127 31.7552C98.3387 30.8852 98.7648 30.2102 99.4054 29.7302C100.046 29.2502 100.878 29.0102 101.902 29.0102C102.748 29.0102 103.466 29.1782 104.055 29.5142C104.65 29.8442 105.071 30.3242 105.317 30.9542C105.431 31.2362 105.505 31.5512 105.54 31.8992C105.574 32.2472 105.591 32.6012 105.591 32.9612V39.0002H104.467V36.5612L104.793 36.7052C104.479 37.5392 103.99 38.1752 103.326 38.6132C102.663 39.0512 101.868 39.2702 100.941 39.2702ZM101.087 38.1272C101.676 38.1272 102.191 38.0162 102.631 37.7942C103.072 37.5722 103.426 37.2692 103.695 36.8852C103.964 36.4952 104.138 36.0572 104.218 35.5712C104.287 35.2592 104.324 34.9172 104.33 34.5452C104.336 34.1672 104.339 33.8852 104.339 33.6992L104.819 33.9602C104.39 34.0202 103.924 34.0802 103.421 34.1402C102.923 34.2002 102.431 34.2692 101.945 34.3472C101.464 34.4252 101.03 34.5182 100.641 34.6262C100.378 34.7042 100.123 34.8152 99.8772 34.9592C99.6313 35.0972 99.4283 35.2832 99.2681 35.5172C99.1137 35.7512 99.0365 36.0422 99.0365 36.3902C99.0365 36.6722 99.1022 36.9452 99.2338 37.2092C99.3711 37.4732 99.5884 37.6922 99.8858 37.8662C100.189 38.0402 100.589 38.1272 101.087 38.1272Z" fill="#FAFAFA"/>
<path d="M116.232 39.0002V34.0412C116.232 33.5012 116.184 33.0062 116.087 32.5562C115.989 32.1002 115.832 31.7042 115.615 31.3682C115.403 31.0262 115.126 30.7622 114.783 30.5762C114.445 30.3902 114.033 30.2972 113.547 30.2972C113.101 30.2972 112.706 30.3782 112.363 30.5402C112.026 30.7022 111.74 30.9362 111.505 31.2422C111.276 31.5422 111.102 31.9082 110.982 32.3402C110.862 32.7722 110.802 33.2642 110.802 33.8162L109.909 33.6092C109.909 32.6132 110.075 31.7762 110.407 31.0982C110.739 30.4202 111.196 29.9072 111.78 29.5592C112.363 29.2112 113.032 29.0372 113.787 29.0372C114.342 29.0372 114.825 29.1272 115.237 29.3072C115.655 29.4872 116.007 29.7302 116.293 30.0362C116.584 30.3422 116.819 30.6932 116.996 31.0892C117.173 31.4792 117.302 31.8962 117.382 32.3402C117.462 32.7782 117.502 33.2162 117.502 33.6542V39.0002H116.232ZM109.532 39.0002V29.2802H110.673V31.6742H110.802V39.0002H109.532Z" fill="#FAFAFA"/>
<path d="M126.489 39.0002C125.969 39.1142 125.454 39.1592 124.945 39.1352C124.442 39.1112 123.99 38.9972 123.589 38.7932C123.195 38.5892 122.894 38.2712 122.688 37.8392C122.523 37.4792 122.431 37.1162 122.414 36.7502C122.403 36.3782 122.397 35.9552 122.397 35.4812V26.5802H123.649V35.4272C123.649 35.8352 123.652 36.1772 123.658 36.4532C123.669 36.7232 123.729 36.9632 123.838 37.1732C124.044 37.5752 124.37 37.8152 124.816 37.8932C125.268 37.9712 125.826 37.9532 126.489 37.8392V39.0002ZM120.415 30.4142V29.2802H126.489V30.4142H120.415Z" fill="#FAFAFA"/>
<path d="M139.154 39.2702C138.468 39.2702 137.83 39.1682 137.241 38.9642C136.657 38.7542 136.168 38.4272 135.774 37.9832C135.465 37.6352 135.236 37.2482 135.087 36.8222C134.939 36.3902 134.856 35.9342 134.838 35.4542C134.833 34.9982 134.896 34.5452 135.027 34.0952C135.159 33.6452 135.365 33.2462 135.645 32.8982C135.811 32.6822 135.997 32.5022 136.203 32.3582C136.414 32.2142 136.632 32.0912 136.855 31.9892C136.426 31.5212 136.097 31.0892 135.868 30.6932C135.645 30.2912 135.533 29.7992 135.533 29.2172C135.533 28.5512 135.694 27.9422 136.014 27.3902C136.34 26.8382 136.789 26.4272 137.361 26.1572C137.653 26.0192 137.95 25.9232 138.253 25.8692C138.562 25.8092 138.868 25.7792 139.171 25.7792C139.634 25.7792 140.089 25.8482 140.535 25.9862C140.981 26.1182 141.362 26.3282 141.676 26.6162C141.888 26.7902 142.074 26.9972 142.234 27.2372C142.394 27.4712 142.52 27.7172 142.611 27.9752L141.393 28.3532C141.273 28.0292 141.073 27.7562 140.793 27.5342C140.575 27.3542 140.324 27.2282 140.038 27.1562C139.757 27.0842 139.474 27.0482 139.188 27.0482C138.702 27.0482 138.262 27.1472 137.867 27.3452C137.524 27.5252 137.266 27.7742 137.095 28.0922C136.923 28.4102 136.837 28.7822 136.837 29.2082C136.837 29.5742 136.895 29.8772 137.009 30.1172C137.123 30.3512 137.289 30.6062 137.507 30.8822C137.632 31.0262 137.773 31.1732 137.927 31.3232C138.081 31.4672 138.239 31.6172 138.399 31.7732L142.311 35.5802C142.334 35.4122 142.348 35.2502 142.354 35.0942C142.36 34.9322 142.363 34.7732 142.363 34.6172L142.354 32.7182H143.547V34.7072C143.547 35.1812 143.529 35.5682 143.495 35.8682C143.461 36.1682 143.415 36.4172 143.358 36.6152L144.954 38.1542L144.121 39.0812L142.757 37.7312C142.569 37.9892 142.328 38.2202 142.037 38.4242C141.751 38.6282 141.465 38.7872 141.179 38.9012C140.87 39.0452 140.544 39.1412 140.201 39.1892C139.857 39.2432 139.509 39.2702 139.154 39.2702ZM139.171 37.9922C139.497 37.9922 139.792 37.9712 140.055 37.9292C140.318 37.8872 140.57 37.8002 140.81 37.6682C141.113 37.5002 141.339 37.3442 141.488 37.2002C141.636 37.0502 141.756 36.9182 141.848 36.8042L137.833 32.9522C137.592 33.0302 137.367 33.1382 137.155 33.2762C136.949 33.4082 136.772 33.5672 136.623 33.7532C136.457 33.9692 136.334 34.2182 136.254 34.5002C136.174 34.7822 136.134 35.0792 136.134 35.3912C136.145 35.7212 136.197 36.0272 136.288 36.3092C136.386 36.5852 136.529 36.8312 136.717 37.0472C136.986 37.3772 137.347 37.6172 137.798 37.7672C138.25 37.9172 138.708 37.9922 139.171 37.9922Z" fill="#FAFAFA"/>
<path d="M153.225 39.0002V26.0402H157.995C158.688 26.0402 159.291 26.1902 159.806 26.4902C160.32 26.7902 160.721 27.1952 161.007 27.7052C161.293 28.2092 161.436 28.7672 161.436 29.3792C161.436 30.0752 161.258 30.6962 160.904 31.2422C160.549 31.7822 160.075 32.1572 159.48 32.3672L159.463 31.9262C160.263 32.1662 160.892 32.5862 161.35 33.1862C161.808 33.7862 162.036 34.5122 162.036 35.3642C162.036 36.1142 161.885 36.7622 161.582 37.3082C161.278 37.8482 160.852 38.2652 160.303 38.5592C159.754 38.8532 159.116 39.0002 158.39 39.0002H153.225ZM154.495 37.7312H158.081C158.585 37.7312 159.036 37.6382 159.437 37.4522C159.837 37.2602 160.152 36.9902 160.381 36.6422C160.615 36.2942 160.732 35.8742 160.732 35.3822C160.732 34.9022 160.626 34.4702 160.415 34.0862C160.203 33.7022 159.914 33.3962 159.548 33.1682C159.188 32.9342 158.776 32.8172 158.313 32.8172H154.495V37.7312ZM154.495 31.5662H157.987C158.381 31.5662 158.742 31.4732 159.068 31.2872C159.394 31.0952 159.651 30.8342 159.84 30.5042C160.034 30.1742 160.132 29.7932 160.132 29.3612C160.132 28.7492 159.929 28.2512 159.523 27.8672C159.122 27.4832 158.61 27.2912 157.987 27.2912H154.495V31.5662Z" fill="#FAFAFA"/>
<path d="M168.115 39.2702C167.418 39.2702 166.831 39.1382 166.357 38.8742C165.888 38.6102 165.536 38.2592 165.301 37.8212C165.067 37.3832 164.95 36.9062 164.95 36.3902C164.95 35.8622 165.05 35.4122 165.25 35.0402C165.456 34.6622 165.733 34.3532 166.082 34.1132C166.437 33.8732 166.846 33.6902 167.309 33.5642C167.778 33.4442 168.296 33.3392 168.862 33.2492C169.434 33.1532 169.991 33.0722 170.535 33.0062C171.084 32.9342 171.564 32.8652 171.976 32.7992L171.53 33.0872C171.547 32.1272 171.37 31.4162 170.998 30.9542C170.626 30.4922 169.98 30.2612 169.059 30.2612C168.424 30.2612 167.887 30.4112 167.446 30.7112C167.012 31.0112 166.706 31.4852 166.528 32.1332L165.301 31.7552C165.513 30.8852 165.939 30.2102 166.58 29.7302C167.22 29.2502 168.053 29.0102 169.076 29.0102C169.923 29.0102 170.641 29.1782 171.23 29.5142C171.825 29.8442 172.245 30.3242 172.491 30.9542C172.605 31.2362 172.68 31.5512 172.714 31.8992C172.748 32.2472 172.765 32.6012 172.765 32.9612V39.0002H171.642V36.5612L171.968 36.7052C171.653 37.5392 171.164 38.1752 170.501 38.6132C169.837 39.0512 169.042 39.2702 168.115 39.2702ZM168.261 38.1272C168.85 38.1272 169.365 38.0162 169.806 37.7942C170.246 37.5722 170.601 37.2692 170.869 36.8852C171.138 36.4952 171.313 36.0572 171.393 35.5712C171.461 35.2592 171.499 34.9172 171.504 34.5452C171.51 34.1672 171.513 33.8852 171.513 33.6992L171.993 33.9602C171.564 34.0202 171.098 34.0802 170.595 34.1402C170.097 34.2002 169.605 34.2692 169.119 34.3472C168.639 34.4252 168.204 34.5182 167.815 34.6262C167.552 34.7042 167.298 34.8152 167.052 34.9592C166.806 35.0972 166.603 35.2832 166.442 35.5172C166.288 35.7512 166.211 36.0422 166.211 36.3902C166.211 36.6722 166.277 36.9452 166.408 37.2092C166.545 37.4732 166.763 37.6922 167.06 37.8662C167.363 38.0402 167.764 38.1272 168.261 38.1272Z" fill="#FAFAFA"/>
<path d="M176.715 39.0002V29.2802H177.847V31.6202L177.624 31.3142C177.727 31.0262 177.862 30.7622 178.027 30.5222C178.193 30.2762 178.374 30.0752 178.568 29.9192C178.808 29.6972 179.088 29.5292 179.409 29.4152C179.729 29.2952 180.052 29.2262 180.378 29.2082C180.704 29.1842 181.002 29.2082 181.271 29.2802V30.5222C180.933 30.4322 180.564 30.4112 180.164 30.4592C179.763 30.5072 179.394 30.6752 179.057 30.9632C178.748 31.2152 178.517 31.5182 178.362 31.8722C178.208 32.2202 178.105 32.5922 178.053 32.9882C178.002 33.3782 177.976 33.7652 177.976 34.1492V39.0002H176.715Z" fill="#FAFAFA"/>
</g>
<defs>
<clipPath id="clip0_128_4">
<rect width="204" height="39" fill="white"/>
</clipPath>
</defs>
</svg>
