<svg width="167" height="40" viewBox="0 0 167 40" fill="none" xmlns="http://www.w3.org/2000/svg">
<path d="M9.04518 0.24999L15.3677 15.3475L16.8077 15.775V16H11.3852V15.775L12.8702 15.3475L10.9802 10.78H4.18518L2.20518 15.3475L4.18518 15.775V16H0.180176V15.775L1.71018 15.3475L8.30268 0.24999H9.04518ZM7.67268 2.72499L4.38768 10.3075H10.7777L7.67268 2.72499Z" fill="#FAFAFA"/>
<path d="M37.1675 0.902491L38.2025 15.3475L39.5975 15.775V16H34.3325V15.775L35.795 15.3475L34.85 2.31999L29.0675 16H28.325L22.4525 2.29749L21.485 15.3925L22.8575 15.82V16H19.55V15.82L21.0125 15.3925L22.07 0.902491L20.6075 0.47499V0.24999H24.05L29.675 13.525L35.255 0.24999H38.5625V0.47499L37.1675 0.902491Z" fill="#FAFAFA"/>
<path d="M43.4208 15.5275V12.3325H43.8258C43.9908 13.0225 44.2533 13.615 44.6133 14.11C44.9733 14.59 45.3858 14.95 45.8508 15.19C46.3158 15.415 46.7508 15.5725 47.1558 15.6625C47.5758 15.7525 48.0108 15.7975 48.4608 15.7975C49.7058 15.7975 50.6808 15.4975 51.3858 14.8975C52.0908 14.2975 52.4433 13.4575 52.4433 12.3775C52.4433 11.8675 52.3608 11.44 52.1958 11.095C52.0458 10.75 51.7683 10.4575 51.3633 10.2175C50.9733 9.96249 50.5908 9.76749 50.2158 9.63249C49.8408 9.49749 49.2708 9.31749 48.5058 9.09249C48.1158 8.97249 47.8308 8.88999 47.6508 8.84499C47.4858 8.78499 47.2233 8.69499 46.8633 8.57499C46.5033 8.45499 46.2333 8.35749 46.0533 8.28249C45.8883 8.19249 45.6558 8.07249 45.3558 7.92249C45.0708 7.77249 44.8533 7.62999 44.7033 7.49499C44.5683 7.34499 44.4033 7.16499 44.2083 6.95499C44.0283 6.74499 43.8933 6.52749 43.8033 6.30249C43.7133 6.07749 43.6308 5.81499 43.5558 5.51499C43.4958 5.21499 43.4658 4.89999 43.4658 4.56999C43.4658 3.24999 43.9008 2.17749 44.7708 1.35249C45.6408 0.52749 46.9308 0.11499 48.6408 0.11499C50.0808 0.11499 51.3408 0.46749 52.4208 1.17249L53.3658 0.51999L53.5908 0.74499V3.93999H53.1858C53.0358 3.24999 52.7958 2.66499 52.4658 2.18499C52.1358 1.68999 51.7533 1.32999 51.3183 1.10499C50.8983 0.86499 50.5008 0.69999 50.1258 0.609991C49.7508 0.50499 49.3683 0.45249 48.9783 0.45249C47.8833 0.45249 47.0058 0.74499 46.3458 1.32999C45.7008 1.91499 45.3783 2.67999 45.3783 3.62499C45.3783 3.99999 45.4383 4.33749 45.5583 4.63749C45.6933 4.93749 45.8433 5.17749 46.0083 5.35749C46.1733 5.53749 46.4508 5.71749 46.8408 5.89749C47.2308 6.07749 47.5533 6.21249 47.8083 6.30249C48.0783 6.39249 48.4983 6.52749 49.0683 6.70749C49.7433 6.91749 50.2758 7.09749 50.6658 7.24749C51.0558 7.38249 51.5133 7.59249 52.0383 7.87749C52.5783 8.14749 52.9908 8.43999 53.2758 8.75499C53.5758 9.05499 53.8308 9.45249 54.0408 9.94749C54.2508 10.4275 54.3558 10.9675 54.3558 11.5675C54.3558 12.9325 53.8833 14.035 52.9383 14.875C51.9933 15.715 50.5758 16.135 48.6858 16.135C47.1258 16.135 45.7683 15.7825 44.6133 15.0775L43.6458 15.7525L43.4208 15.5275Z" fill="#FAFAFA"/>
<path d="M70.3357 0.699991H66.1282V15.3475L67.5907 15.775V16H62.2357V15.775L63.6982 15.3475V0.699991H59.5132L58.4557 3.01749H58.0957V0.24999H71.7532V3.01749H71.3707L70.3357 0.699991Z" fill="#FAFAFA"/>
<path d="M79.0404 15.55H86.0604L87.1179 13.255H87.4779V16H75.1479V15.82L76.6104 15.46V0.78999L75.1479 0.45249V0.24999H87.2529V3.01749H86.8929L85.8354 0.699991H79.0404V7.62999H84.5304L85.0029 5.87499H85.3404V9.85749H85.0029L84.5304 8.10249H79.0404V15.55Z" fill="#FAFAFA"/>
<path d="M103.659 4.52499C103.659 5.63499 103.291 6.55749 102.556 7.29249C101.821 8.01249 100.831 8.45499 99.5861 8.61999C100.126 8.81499 100.644 9.35499 101.139 10.24L104.109 15.415L105.414 15.775V16H101.926L97.8311 8.73249H95.2211V15.3475L96.6836 15.775V16H91.3286V15.775L92.7911 15.3475V0.78999L91.3286 0.45249V0.24999H98.0786C99.7586 0.24999 101.109 0.63249 102.129 1.39749C103.149 2.14749 103.659 3.18999 103.659 4.52499ZM97.7861 0.699991H95.2211V8.28249H97.7861C98.8061 8.28249 99.6236 7.95999 100.239 7.31499C100.869 6.66999 101.184 5.73249 101.184 4.50249C101.184 3.27249 100.869 2.33499 100.239 1.68999C99.6236 1.02999 98.8061 0.699991 97.7861 0.699991Z" fill="#FAFAFA"/>
<path d="M108.41 0.24999H115.588C117.868 0.24999 119.713 0.96249 121.123 2.38749C122.533 3.79749 123.238 5.70999 123.238 8.12499C123.238 10.555 122.533 12.475 121.123 13.885C119.713 15.295 117.868 16 115.588 16H108.41V15.82L109.873 15.46V0.78999L108.41 0.45249V0.24999ZM115.588 0.699991H112.303V15.55H115.588C117.133 15.55 118.37 14.92 119.3 13.66C120.23 12.385 120.695 10.5475 120.695 8.14749C120.695 5.73249 120.23 3.88749 119.3 2.61249C118.37 1.33749 117.133 0.699991 115.588 0.699991Z" fill="#FAFAFA"/>
<path d="M134.263 0.24999L140.585 15.3475L142.025 15.775V16H136.603V15.775L138.088 15.3475L136.198 10.78H129.403L127.423 15.3475L129.403 15.775V16H125.398V15.775L126.928 15.3475L133.52 0.24999H134.263ZM132.89 2.72499L129.605 10.3075H135.995L132.89 2.72499Z" fill="#FAFAFA"/>
<path d="M162.385 0.902491L163.42 15.3475L164.815 15.775V16H159.55V15.775L161.013 15.3475L160.068 2.31999L154.285 16H153.543L147.67 2.29749L146.703 15.3925L148.075 15.82V16H144.768V15.82L146.23 15.3925L147.288 0.902491L145.825 0.47499V0.24999H149.268L154.893 13.525L160.473 0.24999H163.78V0.47499L162.385 0.902491Z" fill="#FAFAFA"/>
<path d="M1.26018 39V26.04H6.26418C6.39018 26.04 6.53118 26.046 6.68718 26.058C6.84918 26.064 7.01118 26.082 7.17318 26.112C7.85118 26.214 8.42418 26.451 8.89218 26.823C9.36618 27.189 9.72318 27.651 9.96318 28.209C10.2092 28.767 10.3322 29.385 10.3322 30.063C10.3322 31.041 10.0742 31.89 9.55818 32.61C9.04218 33.33 8.30418 33.783 7.34418 33.969L6.88518 34.077H2.58318V39H1.26018ZM9.10818 39L6.55218 33.726L7.82118 33.24L10.6292 39H9.10818ZM2.58318 32.817H6.22818C6.33618 32.817 6.46218 32.811 6.60618 32.799C6.75018 32.787 6.89118 32.766 7.02918 32.736C7.47318 32.64 7.83618 32.457 8.11818 32.187C8.40618 31.917 8.61918 31.596 8.75718 31.224C8.90118 30.852 8.97318 30.465 8.97318 30.063C8.97318 29.661 8.90118 29.274 8.75718 28.902C8.61918 28.524 8.40618 28.2 8.11818 27.93C7.83618 27.66 7.47318 27.477 7.02918 27.381C6.89118 27.351 6.75018 27.333 6.60618 27.327C6.46218 27.315 6.33618 27.309 6.22818 27.309H2.58318V32.817Z" fill="#FAFAFA"/>
<path d="M18.5286 39.27C17.5806 39.27 16.7586 39.06 16.0626 38.64C15.3726 38.22 14.8356 37.629 14.4516 36.867C14.0676 36.105 13.8756 35.211 13.8756 34.185C13.8756 33.123 14.0646 32.205 14.4426 31.431C14.8206 30.657 15.3516 30.06 16.0356 29.64C16.7256 29.22 17.5386 29.01 18.4746 29.01C19.4346 29.01 20.2536 29.232 20.9316 29.676C21.6096 30.114 22.1226 30.744 22.4706 31.566C22.8186 32.388 22.9776 33.369 22.9476 34.509H21.5976V34.041C21.5736 32.781 21.3006 31.83 20.7786 31.188C20.2626 30.546 19.5066 30.225 18.5106 30.225C17.4666 30.225 16.6656 30.564 16.1076 31.242C15.5556 31.92 15.2796 32.886 15.2796 34.14C15.2796 35.364 15.5556 36.315 16.1076 36.993C16.6656 37.665 17.4546 38.001 18.4746 38.001C19.1706 38.001 19.7766 37.842 20.2926 37.524C20.8146 37.2 21.2256 36.735 21.5256 36.129L22.7586 36.606C22.3746 37.452 21.8076 38.109 21.0576 38.577C20.3136 39.039 19.4706 39.27 18.5286 39.27ZM14.8116 34.509V33.402H22.2366V34.509H14.8116Z" fill="#FAFAFA"/>
<path d="M30.3719 39.261C29.2319 39.261 28.2929 39.015 27.5549 38.523C26.8229 38.031 26.3729 37.347 26.2049 36.471L27.5549 36.246C27.6989 36.798 28.0259 37.239 28.5359 37.569C29.0519 37.893 29.6879 38.055 30.4439 38.055C31.1819 38.055 31.7639 37.902 32.1899 37.596C32.6159 37.284 32.8289 36.861 32.8289 36.327C32.8289 36.027 32.7599 35.784 32.6219 35.598C32.4899 35.406 32.2169 35.229 31.8029 35.067C31.3889 34.905 30.7709 34.713 29.9489 34.491C29.0669 34.251 28.3769 34.011 27.8789 33.771C27.3809 33.531 27.0269 33.255 26.8169 32.943C26.6069 32.625 26.5019 32.238 26.5019 31.782C26.5019 31.23 26.6579 30.747 26.9699 30.333C27.2819 29.913 27.7139 29.589 28.2659 29.361C28.8179 29.127 29.4599 29.01 30.1919 29.01C30.9239 29.01 31.5779 29.13 32.1539 29.37C32.7359 29.604 33.2039 29.934 33.5579 30.36C33.9119 30.786 34.1219 31.281 34.1879 31.845L32.8379 32.088C32.7479 31.518 32.4629 31.068 31.9829 30.738C31.5089 30.402 30.9059 30.228 30.1739 30.216C29.4839 30.198 28.9229 30.33 28.4909 30.612C28.0589 30.888 27.8429 31.257 27.8429 31.719C27.8429 31.977 27.9209 32.199 28.0769 32.385C28.2329 32.565 28.5149 32.736 28.9229 32.898C29.3369 33.06 29.9249 33.237 30.6869 33.429C31.5809 33.657 32.2829 33.897 32.7929 34.149C33.3029 34.401 33.6659 34.698 33.8819 35.04C34.0979 35.382 34.2059 35.805 34.2059 36.309C34.2059 37.227 33.8639 37.95 33.1799 38.478C32.5019 39 31.5659 39.261 30.3719 39.261Z" fill="#FAFAFA"/>
<path d="M43.294 39C42.748 39.114 42.208 39.159 41.674 39.135C41.146 39.111 40.672 38.997 40.252 38.793C39.838 38.589 39.523 38.271 39.307 37.839C39.133 37.479 39.037 37.116 39.019 36.75C39.007 36.378 39.001 35.955 39.001 35.481V26.58H40.315V35.427C40.315 35.835 40.318 36.177 40.324 36.453C40.336 36.723 40.399 36.963 40.513 37.173C40.729 37.575 41.071 37.815 41.539 37.893C42.013 37.971 42.598 37.953 43.294 37.839V39ZM36.922 30.414V29.28H43.294V30.414H36.922Z" fill="#FAFAFA"/>
<path d="M49.79 39.27C49.058 39.27 48.443 39.138 47.945 38.874C47.453 38.61 47.084 38.259 46.838 37.821C46.592 37.383 46.469 36.906 46.469 36.39C46.469 35.862 46.574 35.412 46.784 35.04C47 34.662 47.291 34.353 47.657 34.113C48.029 33.873 48.458 33.69 48.944 33.564C49.436 33.444 49.979 33.339 50.573 33.249C51.173 33.153 51.758 33.072 52.328 33.006C52.904 32.934 53.408 32.865 53.84 32.799L53.372 33.087C53.39 32.127 53.204 31.416 52.814 30.954C52.424 30.492 51.746 30.261 50.78 30.261C50.114 30.261 49.55 30.411 49.088 30.711C48.632 31.011 48.311 31.485 48.125 32.133L46.838 31.755C47.06 30.885 47.507 30.21 48.179 29.73C48.851 29.25 49.724 29.01 50.798 29.01C51.686 29.01 52.439 29.178 53.057 29.514C53.681 29.844 54.122 30.324 54.38 30.954C54.5 31.236 54.578 31.551 54.614 31.899C54.65 32.247 54.668 32.601 54.668 32.961V39H53.489V36.561L53.831 36.705C53.501 37.539 52.988 38.175 52.292 38.613C51.596 39.051 50.762 39.27 49.79 39.27ZM49.943 38.127C50.561 38.127 51.101 38.016 51.563 37.794C52.025 37.572 52.397 37.269 52.679 36.885C52.961 36.495 53.144 36.057 53.228 35.571C53.3 35.259 53.339 34.917 53.345 34.545C53.351 34.167 53.354 33.885 53.354 33.699L53.858 33.96C53.408 34.02 52.919 34.08 52.391 34.14C51.869 34.2 51.353 34.269 50.843 34.347C50.339 34.425 49.883 34.518 49.475 34.626C49.199 34.704 48.932 34.815 48.674 34.959C48.416 35.097 48.203 35.283 48.035 35.517C47.873 35.751 47.792 36.042 47.792 36.39C47.792 36.672 47.861 36.945 47.999 37.209C48.143 37.473 48.371 37.692 48.683 37.866C49.001 38.04 49.421 38.127 49.943 38.127Z" fill="#FAFAFA"/>
<path d="M62.528 39.243C61.946 39.243 61.436 39.153 60.998 38.973C60.566 38.793 60.197 38.55 59.891 38.244C59.591 37.938 59.348 37.59 59.162 37.2C58.976 36.804 58.841 36.387 58.757 35.949C58.673 35.505 58.631 35.064 58.631 34.626V29.28H59.963V34.239C59.963 34.773 60.014 35.268 60.116 35.724C60.218 36.18 60.38 36.579 60.602 36.921C60.83 37.257 61.121 37.518 61.475 37.704C61.835 37.89 62.27 37.983 62.78 37.983C63.248 37.983 63.659 37.902 64.013 37.74C64.373 37.578 64.673 37.347 64.913 37.047C65.159 36.741 65.345 36.372 65.471 35.94C65.597 35.502 65.66 35.01 65.66 34.464L66.596 34.671C66.596 35.667 66.422 36.504 66.074 37.182C65.726 37.86 65.246 38.373 64.634 38.721C64.022 39.069 63.32 39.243 62.528 39.243ZM65.795 39V36.606H65.66V29.28H66.983V39H65.795Z" fill="#FAFAFA"/>
<path d="M71.2985 39V29.28H72.4865V31.62L72.2525 31.314C72.3605 31.026 72.5015 30.762 72.6755 30.522C72.8495 30.276 73.0385 30.075 73.2425 29.919C73.4945 29.697 73.7885 29.529 74.1245 29.415C74.4605 29.295 74.7995 29.226 75.1415 29.208C75.4835 29.184 75.7955 29.208 76.0775 29.28V30.522C75.7235 30.432 75.3365 30.411 74.9165 30.459C74.4965 30.507 74.1095 30.675 73.7555 30.963C73.4315 31.215 73.1885 31.518 73.0265 31.872C72.8645 32.22 72.7565 32.592 72.7025 32.988C72.6485 33.378 72.6215 33.765 72.6215 34.149V39H71.2985Z" fill="#FAFAFA"/>
<path d="M81.9966 39.27C81.2646 39.27 80.6496 39.138 80.1516 38.874C79.6596 38.61 79.2906 38.259 79.0446 37.821C78.7986 37.383 78.6756 36.906 78.6756 36.39C78.6756 35.862 78.7806 35.412 78.9906 35.04C79.2066 34.662 79.4976 34.353 79.8636 34.113C80.2356 33.873 80.6646 33.69 81.1506 33.564C81.6426 33.444 82.1856 33.339 82.7796 33.249C83.3796 33.153 83.9646 33.072 84.5346 33.006C85.1106 32.934 85.6146 32.865 86.0466 32.799L85.5786 33.087C85.5966 32.127 85.4106 31.416 85.0206 30.954C84.6306 30.492 83.9526 30.261 82.9866 30.261C82.3206 30.261 81.7566 30.411 81.2946 30.711C80.8386 31.011 80.5176 31.485 80.3316 32.133L79.0446 31.755C79.2666 30.885 79.7136 30.21 80.3856 29.73C81.0576 29.25 81.9306 29.01 83.0046 29.01C83.8926 29.01 84.6456 29.178 85.2636 29.514C85.8876 29.844 86.3286 30.324 86.5866 30.954C86.7066 31.236 86.7846 31.551 86.8206 31.899C86.8566 32.247 86.8746 32.601 86.8746 32.961V39H85.6956V36.561L86.0376 36.705C85.7076 37.539 85.1946 38.175 84.4986 38.613C83.8026 39.051 82.9686 39.27 81.9966 39.27ZM82.1496 38.127C82.7676 38.127 83.3076 38.016 83.7696 37.794C84.2316 37.572 84.6036 37.269 84.8856 36.885C85.1676 36.495 85.3506 36.057 85.4346 35.571C85.5066 35.259 85.5456 34.917 85.5516 34.545C85.5576 34.167 85.5606 33.885 85.5606 33.699L86.0646 33.96C85.6146 34.02 85.1256 34.08 84.5976 34.14C84.0756 34.2 83.5596 34.269 83.0496 34.347C82.5456 34.425 82.0896 34.518 81.6816 34.626C81.4056 34.704 81.1386 34.815 80.8806 34.959C80.6226 35.097 80.4096 35.283 80.2416 35.517C80.0796 35.751 79.9986 36.042 79.9986 36.39C79.9986 36.672 80.0676 36.945 80.2056 37.209C80.3496 37.473 80.5776 37.692 80.8896 37.866C81.2076 38.04 81.6276 38.127 82.1496 38.127Z" fill="#FAFAFA"/>
<path d="M98.0376 39V34.041C98.0376 33.501 97.9866 33.006 97.8846 32.556C97.7826 32.1 97.6176 31.704 97.3896 31.368C97.1676 31.026 96.8766 30.762 96.5166 30.576C96.1626 30.39 95.7306 30.297 95.2206 30.297C94.7526 30.297 94.3386 30.378 93.9786 30.54C93.6246 30.702 93.3246 30.936 93.0786 31.242C92.8386 31.542 92.6556 31.908 92.5296 32.34C92.4036 32.772 92.3406 33.264 92.3406 33.816L91.4046 33.609C91.4046 32.613 91.5786 31.776 91.9266 31.098C92.2746 30.42 92.7546 29.907 93.3666 29.559C93.9786 29.211 94.6806 29.037 95.4726 29.037C96.0546 29.037 96.5616 29.127 96.9936 29.307C97.4316 29.487 97.8006 29.73 98.1006 30.036C98.4066 30.342 98.6526 30.693 98.8386 31.089C99.0246 31.479 99.1596 31.896 99.2436 32.34C99.3276 32.778 99.3696 33.216 99.3696 33.654V39H98.0376ZM91.0086 39V29.28H92.2056V31.674H92.3406V39H91.0086Z" fill="#FAFAFA"/>
<path d="M108.797 39C108.251 39.114 107.711 39.159 107.177 39.135C106.649 39.111 106.175 38.997 105.755 38.793C105.341 38.589 105.026 38.271 104.81 37.839C104.636 37.479 104.54 37.116 104.522 36.75C104.51 36.378 104.504 35.955 104.504 35.481V26.58H105.818V35.427C105.818 35.835 105.821 36.177 105.827 36.453C105.839 36.723 105.902 36.963 106.016 37.173C106.232 37.575 106.574 37.815 107.042 37.893C107.516 37.971 108.101 37.953 108.797 37.839V39ZM102.425 30.414V29.28H108.797V30.414H102.425Z" fill="#FAFAFA"/>
<path d="M122.083 39.27C121.363 39.27 120.694 39.168 120.076 38.964C119.464 38.754 118.951 38.427 118.537 37.983C118.213 37.635 117.973 37.248 117.817 36.822C117.661 36.39 117.574 35.934 117.556 35.454C117.55 34.998 117.616 34.545 117.754 34.095C117.892 33.645 118.108 33.246 118.402 32.898C118.576 32.682 118.771 32.502 118.987 32.358C119.209 32.214 119.437 32.091 119.671 31.989C119.221 31.521 118.876 31.089 118.636 30.693C118.402 30.291 118.285 29.799 118.285 29.217C118.285 28.551 118.453 27.942 118.789 27.39C119.131 26.838 119.602 26.427 120.202 26.157C120.508 26.019 120.82 25.923 121.138 25.869C121.462 25.809 121.783 25.779 122.101 25.779C122.587 25.779 123.064 25.848 123.532 25.986C124 26.118 124.399 26.328 124.729 26.616C124.951 26.79 125.146 26.997 125.314 27.237C125.482 27.471 125.614 27.717 125.71 27.975L124.432 28.353C124.306 28.029 124.096 27.756 123.802 27.534C123.574 27.354 123.31 27.228 123.01 27.156C122.716 27.084 122.419 27.048 122.119 27.048C121.609 27.048 121.147 27.147 120.733 27.345C120.373 27.525 120.103 27.774 119.923 28.092C119.743 28.41 119.653 28.782 119.653 29.208C119.653 29.574 119.713 29.877 119.833 30.117C119.953 30.351 120.127 30.606 120.355 30.882C120.487 31.026 120.634 31.173 120.796 31.323C120.958 31.467 121.123 31.617 121.291 31.773L125.395 35.58C125.419 35.412 125.434 35.25 125.44 35.094C125.446 34.932 125.449 34.773 125.449 34.617L125.44 32.718H126.691V34.707C126.691 35.181 126.673 35.568 126.637 35.868C126.601 36.168 126.553 36.417 126.493 36.615L128.167 38.154L127.294 39.081L125.863 37.731C125.665 37.989 125.413 38.22 125.107 38.424C124.807 38.628 124.507 38.787 124.207 38.901C123.883 39.045 123.541 39.141 123.181 39.189C122.821 39.243 122.455 39.27 122.083 39.27ZM122.101 37.992C122.443 37.992 122.752 37.971 123.028 37.929C123.304 37.887 123.568 37.8 123.82 37.668C124.138 37.5 124.375 37.344 124.531 37.2C124.687 37.05 124.813 36.918 124.909 36.804L120.697 32.952C120.445 33.03 120.208 33.138 119.986 33.276C119.77 33.408 119.584 33.567 119.428 33.753C119.254 33.969 119.125 34.218 119.041 34.5C118.957 34.782 118.915 35.079 118.915 35.391C118.927 35.721 118.981 36.027 119.077 36.309C119.179 36.585 119.329 36.831 119.527 37.047C119.809 37.377 120.187 37.617 120.661 37.767C121.135 37.917 121.615 37.992 122.101 37.992Z" fill="#FAFAFA"/>
<path d="M136.844 39V26.04H141.848C142.574 26.04 143.207 26.19 143.747 26.49C144.287 26.79 144.707 27.195 145.007 27.705C145.307 28.209 145.457 28.767 145.457 29.379C145.457 30.075 145.271 30.696 144.899 31.242C144.527 31.782 144.029 32.157 143.405 32.367L143.387 31.926C144.227 32.166 144.887 32.586 145.367 33.186C145.847 33.786 146.087 34.512 146.087 35.364C146.087 36.114 145.928 36.762 145.61 37.308C145.292 37.848 144.845 38.265 144.269 38.559C143.693 38.853 143.024 39 142.262 39H136.844ZM138.176 37.731H141.938C142.466 37.731 142.94 37.638 143.36 37.452C143.78 37.26 144.11 36.99 144.35 36.642C144.596 36.294 144.719 35.874 144.719 35.382C144.719 34.902 144.608 34.47 144.386 34.086C144.164 33.702 143.861 33.396 143.477 33.168C143.099 32.934 142.667 32.817 142.181 32.817H138.176V37.731ZM138.176 31.566H141.839C142.253 31.566 142.631 31.473 142.973 31.287C143.315 31.095 143.585 30.834 143.783 30.504C143.987 30.174 144.089 29.793 144.089 29.361C144.089 28.749 143.876 28.251 143.45 27.867C143.03 27.483 142.493 27.291 141.839 27.291H138.176V31.566Z" fill="#FAFAFA"/>
<path d="M152.464 39.27C151.732 39.27 151.117 39.138 150.619 38.874C150.127 38.61 149.758 38.259 149.512 37.821C149.266 37.383 149.143 36.906 149.143 36.39C149.143 35.862 149.248 35.412 149.458 35.04C149.674 34.662 149.965 34.353 150.331 34.113C150.703 33.873 151.132 33.69 151.618 33.564C152.11 33.444 152.653 33.339 153.247 33.249C153.847 33.153 154.432 33.072 155.002 33.006C155.578 32.934 156.082 32.865 156.514 32.799L156.046 33.087C156.064 32.127 155.878 31.416 155.488 30.954C155.098 30.492 154.42 30.261 153.454 30.261C152.788 30.261 152.224 30.411 151.762 30.711C151.306 31.011 150.985 31.485 150.799 32.133L149.512 31.755C149.734 30.885 150.181 30.21 150.853 29.73C151.525 29.25 152.398 29.01 153.472 29.01C154.36 29.01 155.113 29.178 155.731 29.514C156.355 29.844 156.796 30.324 157.054 30.954C157.174 31.236 157.252 31.551 157.288 31.899C157.324 32.247 157.342 32.601 157.342 32.961V39H156.163V36.561L156.505 36.705C156.175 37.539 155.662 38.175 154.966 38.613C154.27 39.051 153.436 39.27 152.464 39.27ZM152.617 38.127C153.235 38.127 153.775 38.016 154.237 37.794C154.699 37.572 155.071 37.269 155.353 36.885C155.635 36.495 155.818 36.057 155.902 35.571C155.974 35.259 156.013 34.917 156.019 34.545C156.025 34.167 156.028 33.885 156.028 33.699L156.532 33.96C156.082 34.02 155.593 34.08 155.065 34.14C154.543 34.2 154.027 34.269 153.517 34.347C153.013 34.425 152.557 34.518 152.149 34.626C151.873 34.704 151.606 34.815 151.348 34.959C151.09 35.097 150.877 35.283 150.709 35.517C150.547 35.751 150.466 36.042 150.466 36.39C150.466 36.672 150.535 36.945 150.673 37.209C150.817 37.473 151.045 37.692 151.357 37.866C151.675 38.04 152.095 38.127 152.617 38.127Z" fill="#FAFAFA"/>
<path d="M161.485 39V29.28H162.673V31.62L162.439 31.314C162.547 31.026 162.688 30.762 162.862 30.522C163.036 30.276 163.225 30.075 163.429 29.919C163.681 29.697 163.975 29.529 164.311 29.415C164.647 29.295 164.986 29.226 165.328 29.208C165.67 29.184 165.982 29.208 166.264 29.28V30.522C165.91 30.432 165.523 30.411 165.103 30.459C164.683 30.507 164.296 30.675 163.942 30.963C163.618 31.215 163.375 31.518 163.213 31.872C163.051 32.22 162.943 32.592 162.889 32.988C162.835 33.378 162.808 33.765 162.808 34.149V39H161.485Z" fill="#FAFAFA"/>
</svg>
