<svg width="24" height="24" viewBox="0 0 24 24" fill="none" xmlns="http://www.w3.org/2000/svg">
<g clip-path="url(#clip0_17_19)">
<path d="M11.984 16.8152C14.58 16.8152 16.69 14.7042 16.69 12.1082C16.69 10.6992 16.067 9.43424 15.084 8.57024C14.738 8.26724 14.349 8.01424 13.926 7.82224C13.333 7.55224 12.677 7.40124 11.985 7.40124C11.293 7.40124 10.636 7.55224 10.044 7.82224C9.62 8.01624 9.23 8.26924 8.886 8.57124C7.901 9.43524 7.278 10.7002 7.278 12.1092C7.278 14.7042 9.39 16.8152 11.984 16.8152ZM12 8.63124C13.921 8.63124 15.479 10.1882 15.479 12.1092C15.479 14.0302 13.921 15.5882 12 15.5882C10.079 15.5882 8.521 14.0312 8.521 12.1092C8.521 10.1882 10.079 8.63124 12 8.63124ZM17.223 9.00024H24V19.2782C24 21.8862 21.886 24.0002 19.278 24.0002H4.785C2.177 24.0002 0 21.8862 0 19.2782V9.00024H6.747C6.203 9.91324 5.875 10.9692 5.875 12.1092C5.875 15.4832 8.61 18.2182 11.984 18.2182C15.358 18.2182 18.093 15.4832 18.093 12.1092C18.094 10.9692 17.766 9.91324 17.223 9.00024ZM19.278 0.000244141H7V5.00024H6V0.000244141H5V5.00024H4V0.0772441C3.654 0.134244 3.318 0.220244 3 0.347244V5.00024H2V0.898244C0.798 1.75524 0 3.14424 0 4.72224V8.00024H7.473C8.64 6.71824 10.271 6.00024 11.984 6.00024C13.706 6.00024 15.335 6.72524 16.495 8.00024H24V4.72224C24 2.11424 21.886 0.000244141 19.278 0.000244141V0.000244141ZM22 5.26524C22 5.67124 21.667 6.00024 21.255 6.00024H18.744C18.333 6.00024 18 5.67124 18 5.26524V2.73524C18 2.32924 18.333 2.00024 18.744 2.00024H21.255C21.667 2.00024 22 2.32924 22 2.73524V5.26524Z" fill="#14131C"/>
</g>
<defs>
<clipPath id="clip0_17_19">
<rect width="24" height="24" fill="white" transform="translate(0 0.000244141)"/>
</clipPath>
</defs>
</svg>
