<svg width="24" height="24" viewBox="0 0 24 24" fill="none" xmlns="http://www.w3.org/2000/svg">
<g clip-path="url(#clip0_17_34)">
<path fill-rule="evenodd" clip-rule="evenodd" d="M18.3839 22.7791C18.7059 23.0071 19.1209 23.0641 19.4909 22.9241C19.8609 22.7831 20.1329 22.4671 20.2149 22.0841C21.0839 18.0001 23.1919 7.66315 23.9829 3.94815C24.0429 3.66815 23.9429 3.37715 23.7229 3.19015C23.5029 3.00315 23.1979 2.94915 22.9259 3.05015C18.7329 4.60215 5.81991 9.44715 0.54191 11.4001C0.20691 11.5241 -0.0110904 11.8461 -9.04275e-05 12.1991C0.0119096 12.5531 0.24991 12.8601 0.59291 12.9631C2.95991 13.6711 6.06691 14.6561 6.06691 14.6561C6.06691 14.6561 7.51891 19.0411 8.27591 21.2711C8.37091 21.5511 8.58991 21.7711 8.87891 21.8471C9.16691 21.9221 9.47491 21.8431 9.68991 21.6401C10.9059 20.4921 12.7859 18.7171 12.7859 18.7171C12.7859 18.7171 16.3579 21.3361 18.3839 22.7791ZM7.37391 14.1021L9.05291 19.6401L9.42591 16.1331C9.42591 16.1331 15.9129 10.2821 19.6109 6.94715C19.7189 6.84915 19.7339 6.68515 19.6439 6.57015C19.5549 6.45515 19.3909 6.42815 19.2679 6.50615C14.9819 9.24315 7.37391 14.1021 7.37391 14.1021Z" fill="#14131C"/>
</g>
<defs>
<clipPath id="clip0_17_34">
<rect width="24" height="24" fill="white" transform="translate(0 0.000244141)"/>
</clipPath>
</defs>
</svg>
