<svg width="24" height="24" viewBox="0 0 24 24" fill="none" xmlns="http://www.w3.org/2000/svg">
<g clip-path="url(#clip0_17_51)">
<path d="M24 4.55729C23.117 4.94929 22.168 5.21329 21.172 5.33229C22.189 4.72329 22.97 3.75829 23.337 2.60829C22.386 3.17229 21.332 3.58229 20.21 3.80329C19.313 2.84629 18.032 2.24829 16.616 2.24829C13.437 2.24829 11.101 5.21429 11.819 8.29329C7.728 8.08829 4.1 6.12829 1.671 3.14929C0.381 5.36229 1.002 8.25729 3.194 9.72329C2.388 9.69729 1.628 9.47629 0.965 9.10729C0.911 11.3883 2.546 13.5223 4.914 13.9973C4.221 14.1853 3.462 14.2293 2.69 14.0813C3.316 16.0373 5.134 17.4603 7.29 17.5003C5.22 19.1233 2.612 19.8483 0 19.5403C2.179 20.9373 4.768 21.7523 7.548 21.7523C16.69 21.7523 21.855 14.0313 21.543 7.10629C22.505 6.41129 23.34 5.54429 24 4.55729Z" fill="#14131C"/>
</g>
<defs>
<clipPath id="clip0_17_51">
<rect width="24" height="24" fill="white" transform="translate(0 0.000244141)"/>
</clipPath>
</defs>
</svg>
